<?xml version="1.0" encoding="UTF-8"?>
<svg width="128" height="128" viewBox="0 0 128 128" fill="none" xmlns="http://www.w3.org/2000/svg">
  <!-- Background circle with gradient -->
  <circle cx="64" cy="64" r="60" fill="url(#gradient)" stroke="#667eea" stroke-width="4"/>
  
  <!-- Speaker icon -->
  <path d="M45 40 L45 88 L55 88 L75 95 L75 33 L55 40 Z" fill="white"/>
  
  <!-- Sound waves -->
  <path d="M85 45 Q95 55 95 64 Q95 73 85 83" stroke="white" stroke-width="3" fill="none" stroke-linecap="round"/>
  <path d="M90 52 Q97 59 97 64 Q97 69 90 76" stroke="white" stroke-width="2" fill="none" stroke-linecap="round"/>
  
  <!-- AI brain icon -->
  <circle cx="35" cy="35" r="8" fill="#ff6b6b" opacity="0.9"/>
  <path d="M30 35 L35 40 L40 30" stroke="white" stroke-width="1.5" fill="none" stroke-linecap="round"/>
  
  <!-- Text lines indicator -->
  <rect x="20" y="100" width="88" height="2" rx="1" fill="white" opacity="0.8"/>
  <rect x="30" y="105" width="68" height="2" rx="1" fill="white" opacity="0.6"/>
  <rect x="25" y="110" width="78" height="2" rx="1" fill="white" opacity="0.4"/>
  
  <!-- Gradient definition -->
  <defs>
    <linearGradient id="gradient" x1="0%" y1="0%" x2="100%" y2="100%">
      <stop offset="0%" style="stop-color:#667eea;stop-opacity:1" />
      <stop offset="100%" style="stop-color:#764ba2;stop-opacity:1" />
    </linearGradient>
  </defs>
</svg>