<svg xmlns="http://www.w3.org/2000/svg" viewBox="0 0 128 128" width="128" height="128">
  <!-- Background circle -->
  <circle cx="64" cy="64" r="60" fill="#0066cc" stroke="#004499" stroke-width="4"/>
  
  <!-- Sound waves -->
  <path d="M24 64h16l20 20V44l-20 20z" fill="white"/>
  <path d="M70 44c8 6 13 15 13 20s-5 14-13 20" stroke="white" stroke-width="4" fill="none"/>
  <path d="M78 36c12 9 20 22 20 28s-8 19-20 28" stroke="white" stroke-width="3" fill="none"/>
  <path d="M86 28c16 12 26 28 26 36s-10 24-26 36" stroke="white" stroke-width="2" fill="none"/>
  
  <!-- AI sparkle -->
  <g fill="white">
    <circle cx="90" cy="38" r="2"/>
    <circle cx="102" cy="45" r="1.5"/>
    <circle cx="95" cy="52" r="1"/>
    <path d="M88 30l2 6 6 2-6 2-2 6-2-6-6-2 6-2z" opacity="0.8"/>
  </g>
  
  <!-- Text lines representing speech -->
  <g stroke="white" stroke-width="2" opacity="0.6">
    <line x1="75" y1="58" x2="88" y2="58"/>
    <line x1="75" y1="64" x2="92" y2="64"/>
    <line x1="75" y1="70" x2="85" y2="70"/>
  </g>
</svg>